HIERARCHY
ROOT Hips
{
	OFFSET 0.000000 0.000000 0.000000 
	CHANNELS 6 Xposition Yposition Zposition Zrotation Yrotation Xrotation
	JOINT LeftUpLeg
	{
		OFFSET 1.363060 -1.794630 0.839290 
		CHANNELS 3 Zrotation Yrotation Xrotation
		JOINT LeftLeg
		{
			OFFSET 2.448110 -6.726130 0.000000 
			CHANNELS 3 Zrotation Yrotation Xrotation
			JOINT LeftFoot
			{
				OFFSET 2.562200 -7.039590 0.000000 
				CHANNELS 3 Zrotation Yrotation Xrotation
				JOINT LeftToeBase
				{
					OFFSET 0.157640 -0.433110 2.322550 
					CHANNELS 3 Zrotation Yrotation Xrotation
					End Site
					{
						OFFSET 0.000000 0.000000 0.000000 
					}
				}
			}
		}
	}
	JOINT RightUpLeg
	{
		OFFSET -1.305520 -1.794630 0.839290 
		CHANNELS 3 Zrotation Yrotation Xrotation
		JOINT RightLeg
		{
			OFFSET -2.542530 -6.985550 0.000000 
			CHANNELS 3 Zrotation Yrotation Xrotation
			JOINT RightFoot
			{
				OFFSET -2.568260 -7.056230 0.000000 
				CHANNELS 3 Zrotation Yrotation Xrotation
				JOINT RightToeBase
				{
					OFFSET -0.164730 -0.452590 2.363150 
					CHANNELS 3 Zrotation Yrotation Xrotation
					End Site
					{
						OFFSET 0.000000 0.000000 0.000000 
					}
				}
			}
		}
	}
	JOINT Spine
	{
		OFFSET 0.028270 2.035590 -0.193380 
		CHANNELS 3 Zrotation Yrotation Xrotation
		JOINT Spine1
		{
			OFFSET 0.056720 2.048850 -0.042750 
			CHANNELS 3 Zrotation Yrotation Xrotation
			JOINT Neck1
			{
				OFFSET -0.054170 1.746240 0.172020 
				CHANNELS 3 Zrotation Yrotation Xrotation
				JOINT Head
				{
					OFFSET 0.104070 1.761360 -0.123970 
					CHANNELS 3 Zrotation Yrotation Xrotation
					End Site
					{
						OFFSET 0.000000 0.000000 0.000000 
					}
				}
			}
			JOINT LeftArm
			{
				OFFSET 3.362410 1.200890 -0.311210 
				CHANNELS 3 Zrotation Yrotation Xrotation
				JOINT LeftForeArm
				{
					OFFSET 4.983000 -0.000000 -0.000000 
					CHANNELS 3 Zrotation Yrotation Xrotation
					JOINT LeftHand
					{
						OFFSET 3.483560 -0.000000 -0.000000 
						CHANNELS 3 Zrotation Yrotation Xrotation
						JOINT LeftHandIndex1
						{
							OFFSET 0.715260 -0.000000 -0.000000 
							CHANNELS 3 Zrotation Yrotation Xrotation
							End Site
							{
								OFFSET 0.000000 0.000000 0.000000 
							}
						}
					}
				}
			}
			JOINT RightArm
			{
				OFFSET -3.136600 1.374050 -0.404650 
				CHANNELS 3 Zrotation Yrotation Xrotation
				JOINT RightForeArm
				{
					OFFSET -5.241900 -0.000000 -0.000000 
					CHANNELS 3 Zrotation Yrotation Xrotation
					JOINT RightHand
					{
						OFFSET -3.444170 -0.000000 -0.000000 
						CHANNELS 3 Zrotation Yrotation Xrotation
						JOINT RightHandIndex1
						{
							OFFSET -0.622530 -0.000000 -0.000000 
							CHANNELS 3 Zrotation Yrotation Xrotation
							End Site
							{
								OFFSET 0.000000 0.000000 0.000000 
							}
						}
					}
				}
			}
		}
	}
}
MOTION
Frames: 12
Frame Time: 0.041667
22.998794 17.343022 -34.284104 -1.099550 -16.079434 11.312568 -24.058791 -25.671002 -12.945029 -1.683511 7.566473 22.555185 -3.018349 18.060083 -12.931125 0.012800 -0.730200 -2.006700 28.029123 29.438857 -12.542641 1.568936 -7.914879 23.775915 2.703044 -28.721159 -31.990560 -2.543000 -9.915700 28.704000 1.039198 0.846819 -2.012431 -0.906934 0.708444 -0.704129 7.977375 1.645973 13.473351 3.195000 1.146900 7.261500 -87.590917 -0.504128 33.146778 21.081900 -24.138281 -5.753776 -1.252329 -1.062143 27.165924 -7.125000 0.000000 0.000000 84.473430 2.895262 43.891190 -21.447631 22.620699 -4.482475 -1.216588 -0.950073 -13.398295 7.125000 0.000000 0.000000 
23.002696 17.341504 -34.282370 -1.040081 -16.230221 11.263158 -24.187351 -25.706459 -12.840064 -1.700088 7.531588 22.459482 -3.140439 18.551779 -12.723234 0.031600 -1.147200 -3.153900 27.966061 29.542184 -12.552753 1.547424 -7.949007 23.861741 2.812446 -28.941375 -31.779181 -2.472700 -9.788100 28.293300 1.030935 0.879119 -2.012276 -0.893844 0.723542 -0.706946 7.962656 1.568656 13.487251 3.184900 1.108400 7.280900 -87.601741 -0.498133 33.216293 21.093338 -24.155858 -5.766183 -1.254047 -1.064470 27.191424 -7.125000 0.000000 0.000000 84.489199 2.849796 43.972333 -21.710117 22.890357 -4.572501 -1.216174 -0.940057 -13.346742 7.125000 0.000000 0.000000 
23.005731 17.340746 -34.282370 -1.032022 -16.374406 11.245849 -24.208271 -25.661362 -12.824177 -1.708553 7.519317 22.427386 -3.162232 18.646478 -12.746481 0.037700 -1.252900 -3.444900 27.943730 29.585057 -12.592072 1.533193 -7.974808 23.921302 2.818454 -28.904439 -31.667836 -2.518500 -9.871500 28.561600 1.037540 0.912831 -2.007089 -0.864647 0.740351 -0.710887 7.838001 1.509982 13.402064 3.092800 1.074700 7.222800 -87.637855 -0.510876 33.239279 21.131435 -24.201881 -5.783665 -1.248741 -1.071038 27.245913 -7.125000 0.000000 0.000000 84.475817 2.802382 44.028428 -21.980823 23.156514 -4.658314 -1.216063 -0.922079 -13.216004 7.125000 0.000000 0.000000 
23.008441 17.339445 -34.283237 -0.997552 -16.467398 11.211854 -24.246182 -25.500529 -12.863455 -1.707891 7.521308 22.440966 -3.113073 18.448696 -12.813680 0.030500 -1.127200 -3.098900 27.891275 29.640444 -12.603938 1.526647 -7.988199 23.955449 2.768893 -28.789525 -31.737769 -2.571200 -9.966300 28.867700 1.038394 0.894945 -2.033758 -0.858683 0.732636 -0.836725 7.779858 1.539766 13.339217 3.047800 1.085700 7.162400 -87.659157 -0.387743 33.250965 21.206049 -24.289034 -5.818830 -1.244449 -1.073293 27.077043 -7.125000 0.000000 0.000000 84.505807 2.777631 44.172474 -22.101822 23.283770 -4.703562 -1.210761 -0.927203 -13.221314 7.125000 0.000000 0.000000 
23.012452 17.338469 -34.282587 -0.923049 -16.498841 11.190175 -24.346470 -25.374259 -12.920885 -1.697515 7.540884 22.501420 -3.048562 18.200607 -12.876438 0.019200 -0.895600 -2.461600 27.774865 29.685397 -12.621075 1.526162 -7.989274 23.952846 2.757963 -28.757703 -31.757179 -2.544000 -9.917500 28.709900 1.020531 0.850247 -2.073093 -0.915251 0.709470 -0.951771 7.771963 1.567536 13.398390 3.041300 1.099700 7.193500 -87.624471 -0.243167 33.312926 21.284413 -24.381929 -5.863595 -1.240718 -1.081970 26.867681 -7.125000 0.000000 0.000000 84.511775 2.675142 44.680438 -22.347656 23.561853 -4.802210 -1.187887 -0.957571 -13.586569 7.125000 0.000000 0.000000 
23.015487 17.339770 -34.280311 -0.932039 -16.501888 11.233760 -24.345046 -25.243428 -13.038334 -1.689062 7.560336 22.538422 -3.028809 18.099109 -12.772004 0.026200 -1.044700 -2.871800 27.769412 29.656007 -12.687722 1.520110 -7.998944 23.959142 2.897929 -29.007677 -31.419637 -2.415600 -9.682700 27.955300 1.030826 0.812211 -2.087093 -0.901774 0.690437 -0.946939 7.733188 1.592753 13.420520 3.020500 1.108600 7.201000 -87.660416 -0.247569 33.261417 21.301391 -24.401650 -5.870250 -1.235210 -1.090205 26.916900 -7.125000 0.000000 0.000000 84.438889 2.571806 45.042758 -22.679106 23.922121 -4.941776 -1.176442 -0.973994 -13.859526 7.125000 0.000000 0.000000 
23.016137 17.341288 -34.278143 -1.034747 -16.556782 11.274605 -24.218485 -25.140704 -13.059635 -1.697595 7.541090 22.488767 -3.004327 17.966344 -12.771047 0.011500 -0.693100 -1.904600 27.893443 29.619869 -12.744361 1.501709 -8.036207 24.050523 2.920417 -29.015608 -31.271153 -2.392400 -9.639600 27.817500 1.054562 0.813986 -2.090627 -0.879233 0.691789 -0.945084 7.665568 1.620645 13.377351 2.976100 1.117400 7.159400 -87.751643 -0.261740 33.117837 21.296230 -24.393633 -5.859274 -1.238028 -1.076999 27.027184 -7.125000 0.000000 0.000000 84.457744 2.575778 45.027194 -22.802974 24.056640 -5.004895 -1.185475 -0.969890 -13.810393 7.125000 0.000000 0.000000 
23.017763 17.343456 -34.275975 -0.950876 -16.644982 11.235248 -24.305301 -25.192480 -12.913211 -1.720835 7.487679 22.372802 -2.981782 17.901030 -12.934166 0.000400 -0.120800 -0.332000 27.734750 29.622044 -12.786934 1.482564 -8.089106 24.207341 2.397609 -27.839551 -32.097292 -2.702100 -10.196500 29.615500 1.032782 0.836382 -2.093466 -0.920313 0.700728 -0.945375 7.663248 1.606890 13.369823 2.972900 1.111800 7.161000 -87.741222 -0.256243 33.134127 21.286399 -24.385030 -5.859488 -1.250984 -1.057143 26.922224 -7.125000 0.000000 0.000000 84.576234 2.637436 44.961577 -22.792888 24.054760 -5.019821 -1.206055 -0.956625 -13.725351 7.125000 0.000000 0.000000 
23.022316 17.345082 -34.274565 -0.564216 -16.734612 11.094942 -24.780310 -25.195798 -12.766625 -1.742099 7.437687 22.257200 -3.004887 18.049591 -12.885887 0.003100 -0.362300 -0.995600 27.251409 29.553657 -12.879246 1.454466 -8.143544 24.353259 2.181410 -27.263778 -32.359745 -2.781400 -10.332500 30.060400 0.980133 0.809736 -2.088023 -0.910721 0.684977 -0.908209 7.726264 1.643958 13.354520 3.019200 1.133000 7.162400 -87.649959 -0.328914 33.263237 21.234459 -24.328093 -5.841748 -1.266309 -1.037321 26.727120 -7.125000 0.000000 0.000000 84.580473 2.649200 45.166566 -22.955864 24.220016 -5.081969 -1.212420 -0.943454 -13.821765 7.125000 0.000000 0.000000 
23.026869 17.342697 -34.274349 -0.304929 -16.847235 10.974910 -25.144383 -24.992508 -12.710580 -1.761155 7.389818 22.137132 -3.036869 18.178614 -12.652539 0.013100 -0.738300 -2.028900 27.014857 29.339948 -13.082195 1.408873 -8.214012 24.494510 2.853203 -28.606217 -30.999496 -2.288800 -9.443300 27.192200 0.946410 0.794099 -2.102732 -0.901622 0.677299 -0.986526 7.711146 1.672919 13.272133 3.006900 1.143400 7.074400 -87.606930 -0.321511 33.288455 21.177252 -24.251022 -5.797810 -1.265733 -1.024512 26.765371 -7.125000 0.000000 0.000000 84.552637 2.523567 45.475251 -23.243415 24.507412 -5.164399 -1.188092 -0.945586 -13.851475 7.125000 0.000000 0.000000 
23.029470 17.340420 -34.272939 -0.434358 -16.948802 10.984205 -25.040890 -24.790865 -12.717544 -1.776367 7.350957 22.033354 -3.073037 18.259675 -12.431533 0.019100 -0.892400 -2.452800 27.216435 29.322184 -13.175417 1.372297 -8.268839 24.607497 3.358543 -29.669843 -29.993091 -1.943100 -8.746500 25.005400 0.958861 0.814677 -2.141925 -0.924174 0.689273 -1.143688 7.695771 1.663035 13.248989 3.006200 1.129600 7.009000 -87.710226 -0.184521 33.135104 21.155448 -24.218425 -5.776460 -1.255127 -1.036239 26.936204 -7.125000 0.000000 0.000000 84.524567 2.316230 45.805440 -23.484802 24.752547 -5.230568 -1.155992 -0.958959 -13.894353 7.125000 0.000000 0.000000 
23.031747 17.339987 -34.271313 -0.486679 -17.024385 11.004956 -24.994654 -24.711866 -12.739772 -1.779412 7.342878 22.008827 -3.091513 18.309846 -12.332781 0.029600 -1.110000 -3.051500 27.248426 29.566887 -13.103697 1.373894 -8.273745 24.634394 3.158244 -29.326618 -30.511727 -2.058600 -8.987000 25.754800 0.948561 0.877844 -2.177840 -0.979085 0.720375 -1.265021 7.713714 1.588539 13.277036 3.013400 1.093100 7.012600 -87.737509 -0.073223 33.208516 21.173757 -24.245178 -5.795975 -1.263326 -1.028510 26.871648 -7.125000 0.000000 0.000000 84.581394 2.173066 45.907340 -23.651713 24.918427 -5.276991 -1.142982 -0.956581 -14.025018 7.125000 0.000000 0.000000 
